<?xml version="1.0" encoding="UTF-8" standalone="no" ?>
<!DOCTYPE svg PUBLIC "-//W3C//DTD SVG 1.1//EN" "http://www.w3.org/Graphics/SVG/1.1/DTD/svg11.dtd">
<svg xmlns="http://www.w3.org/2000/svg" xmlns:xlink="http://www.w3.org/1999/xlink" version="1.1" width="500" height="500" viewBox="0 0 500 500" xml:space="preserve">
<desc>Created with Fabric.js 3.6.3</desc>
<defs>
</defs>
<g transform="matrix(8.295342445061971 0 0 8.295342445061971 249.5372038995726 237.41)"  >
<path style="stroke: none; stroke-width: 0; stroke-dasharray: none; stroke-linecap: butt; stroke-dashoffset: 0; stroke-linejoin: miter; stroke-miterlimit: 4; fill: rgb(255,87,87); fill-rule: nonzero; opacity: 1;"  transform=" translate(-16, -15.997240220395852)" d="M 25 30 a 1 1 0 0 1 -0.71 -0.29 L 16 21.41 l -8.29 8.3 a 1 1 0 0 1 -1.09 0.21 A 1 1 0 0 1 6 29 V 17 H 3 a 1 1 0 0 1 -0.92 -0.62 a 1 1 0 0 1 0.21 -1.09 l 13 -13 a 1 1 0 0 1 1.42 0 l 13 13 a 1 1 0 0 1 0.21 1.09 A 1 1 0 0 1 29 17 H 26 V 29 a 1 1 0 0 1 -0.62 0.92 A 0.84 0.84 0 0 1 25 30 Z M 16 19 a 1 1 0 0 1 0.71 0.29 L 24 26.59 V 16 a 1 1 0 0 1 1 -1 h 1.59 L 16 4.41 L 5.41 15 H 7 a 1 1 0 0 1 1 1 V 26.59 l 7.29 -7.3 A 1 1 0 0 1 16 19 Z m 0 -2 a 4 4 0 1 1 4 -4 A 4 4 0 0 1 16 17 Z m 0 -6 a 2 2 0 1 0 2 2 A 2 2 0 0 0 16 11 Z m 0 19 a 2 2 0 1 1 2 -2 A 2 2 0 0 1 16 30 Z m 0 -2 h 0 Z m 0 0 h 0 Z m 0 0 h 0 Z m 0 0 h 0 Z m 0 0 h 0 Z m 0 0 h 0 Z m 0 0 h 0 Z m 0 0 h 0 Z" stroke-linecap="round" />
</g>
<g transform="matrix(0.8 0 0 0.8000000000000002 250.21000000000004 327.6416599986961)"  >
<path style="stroke: none; stroke-width: 1; stroke-dasharray: none; stroke-linecap: butt; stroke-dashoffset: 0; stroke-linejoin: miter; stroke-miterlimit: 4; fill: rgb(255,255,255); fill-rule: nonzero; opacity: 1;"  transform=" translate(-249.95000000000002, -250)" d="M 76.9 288.8 h 346.2 c 21.4 0 38.8 -17.4 38.8 -38.8 v 0 c 0 -21.4 -17.4 -38.8 -38.8 -38.8 H 76.9 C 55.4 211.2 38 228.6 38 250 v 0 C 38 271.4 55.4 288.8 76.9 288.8 z" stroke-linecap="round" />
</g>
<g transform="matrix(1 0 0 1 249.3635273785533 328.28065999869614)" style=""  ><path fill="#ff5757" opacity="1" d="M-128.75 3.59L-128.75 3.59Q-127.64 3.59-127.01 3.47Q-126.38 3.36-126.06 3.19Q-125.74 3.01-125.66 2.79Q-125.58 2.58-125.58 2.39L-125.58 2.39Q-125.58 2.02-125.75 1.81Q-125.93 1.59-126.31 1.47Q-126.69 1.34-127.32 1.29Q-127.95 1.24-128.83 1.22L-128.83 1.22Q-129.35 1.20-130.05 1.16Q-130.75 1.12-131.49 0.98Q-132.23 0.85-132.95 0.59Q-133.67 0.33-134.24-0.13Q-134.81-0.59-135.16-1.29Q-135.51-2.00-135.51-3.00L-135.51-3.00L-135.51-3.27Q-135.51-4.16-135.19-4.97Q-134.87-5.79-134.10-6.40Q-133.32-7.02-132.02-7.38Q-130.71-7.74-128.75-7.74L-128.75-7.74L-128.01-7.74Q-126.59-7.74-125.25-7.57Q-123.91-7.39-122.63-7.06L-122.63-7.06L-122.63-3.66Q-124.14-4.01-125.61-4.22Q-127.08-4.43-128.61-4.43L-128.61-4.43Q-129.72-4.43-130.36-4.31Q-131.00-4.20-131.31-4.02Q-131.63-3.85-131.72-3.65Q-131.80-3.46-131.80-3.27L-131.80-3.27Q-131.80-2.90-131.62-2.68Q-131.45-2.45-131.06-2.32Q-130.67-2.20-130.05-2.15Q-129.43-2.10-128.56-2.08L-128.56-2.08Q-128.07-2.06-127.39-2.03Q-126.71-2.00-125.96-1.86Q-125.21-1.73-124.48-1.46Q-123.74-1.19-123.17-0.73Q-122.59-0.26-122.23 0.45Q-121.87 1.16-121.87 2.17L-121.87 2.17L-121.87 2.43Q-121.87 3.32-122.19 4.12Q-122.51 4.93-123.29 5.54Q-124.07 6.16-125.37 6.52Q-126.67 6.88-128.65 6.88L-128.65 6.88L-129.39 6.88Q-131.02 6.88-132.55 6.71Q-134.09 6.53-135.57 6.22L-135.57 6.22L-135.57 2.76Q-133.90 3.13-132.12 3.36Q-130.34 3.59-128.75 3.59Z"/><path fill="#ff5757" opacity="1" d="M-116.53-7.33L-112.83-7.33L-112.83 6.47L-116.53 6.47L-116.53-7.33Z"/><path fill="#ff5757" opacity="1" d="M-103.58-7.33L-96.35 1.53L-96.35-7.33L-92.64-7.33L-92.64 6.47L-96.35 6.47L-103.58-2.39L-103.58 6.47L-107.28 6.47L-107.28-7.33L-103.58-7.33Z"/><path fill="#ff5757" opacity="1" d="M-76.06-0.45L-72.35-0.45L-72.35 6.22Q-73.81 6.53-75.35 6.71Q-76.90 6.88-78.49 6.88L-78.49 6.88L-79.23 6.88Q-81.60 6.88-83.15 6.35Q-84.71 5.81-85.63 4.90Q-86.56 3.98-86.93 2.74Q-87.30 1.51-87.30 0.11L-87.30 0.11L-87.30-0.97Q-87.30-2.37-86.93-3.60Q-86.56-4.84-85.63-5.75Q-84.71-6.67-83.15-7.21Q-81.60-7.74-79.23-7.74L-79.23-7.74L-78.49-7.74Q-77.00-7.74-75.56-7.57Q-74.12-7.39-72.76-7.06L-72.76-7.06L-72.76-3.71Q-74.28-4.12-75.86-4.29Q-77.44-4.47-78.59-4.47L-78.59-4.47Q-80.44-4.47-81.44-4.17Q-82.44-3.87-82.90-3.33Q-83.37-2.80-83.44-2.06Q-83.51-1.32-83.51-0.43L-83.51-0.43Q-83.51 0.46-83.44 1.20Q-83.37 1.94-82.90 2.49Q-82.44 3.03-81.44 3.33Q-80.44 3.63-78.59 3.63L-78.59 3.63Q-77.48 3.63-76.06 3.50L-76.06 3.50L-76.06-0.45Z"/><path fill="#ff5757" opacity="1" d="M-64.19 6.47L-67.53 6.47L-67.53 5.65L-61.39-7.33L-57.68-7.33L-51.54 5.65L-51.54 6.47L-54.88 6.47L-56.07 3.79L-63.02 3.79L-64.19 6.47ZM-61.64 0.70L-57.43 0.70L-59.53-4.01L-61.64 0.70Z"/><path fill="#ff5757" opacity="1" d="M-32.71-2.80L-32.71-1.97Q-32.71-0.94-32.97-0.05Q-33.23 0.85-33.85 1.52Q-34.46 2.19-35.52 2.58Q-36.59 2.97-38.19 2.97L-38.19 2.97L-38.77 2.97Q-39.88 2.97-40.94 2.95Q-42.00 2.93-43.01 2.76L-43.01 2.76L-43.01 6.47L-46.72 6.47L-46.72-7.33Q-44.95-7.54-43.00-7.64Q-41.06-7.74-39.18-7.74L-39.18-7.74L-38.60-7.74Q-36.87-7.74-35.74-7.35Q-34.61-6.96-33.93-6.29Q-33.25-5.62-32.98-4.71Q-32.71-3.81-32.71-2.80L-32.71-2.80ZM-39.35-0.33L-39.35-0.33Q-38.25-0.33-37.66-0.48Q-37.06-0.64-36.78-0.91Q-36.50-1.19-36.46-1.56Q-36.42-1.93-36.42-2.39L-36.42-2.39Q-36.42-2.84-36.46-3.22Q-36.50-3.60-36.77-3.87Q-37.04-4.14-37.60-4.29Q-38.15-4.45-39.20-4.45L-39.20-4.45Q-39.86-4.45-40.92-4.41Q-41.98-4.36-43.01-4.26L-43.01-4.26L-43.01-0.51Q-42.04-0.39-41.18-0.36Q-40.31-0.33-39.35-0.33Z"/><path fill="#ff5757" opacity="1" d="M-27.71 0.11L-27.71-0.97Q-27.71-2.37-27.36-3.60Q-27.01-4.84-26.13-5.75Q-25.26-6.67-23.77-7.21Q-22.29-7.74-20.04-7.74L-20.04-7.74L-19.30-7.74Q-17.06-7.74-15.57-7.21Q-14.09-6.67-13.21-5.75Q-12.34-4.84-11.99-3.60Q-11.64-2.37-11.64-0.97L-11.64-0.97L-11.64 0.11Q-11.64 1.51-11.99 2.74Q-12.34 3.98-13.21 4.90Q-14.09 5.81-15.57 6.35Q-17.06 6.88-19.30 6.88L-19.30 6.88L-20.04 6.88Q-22.29 6.88-23.77 6.35Q-25.26 5.81-26.13 4.90Q-27.01 3.98-27.36 2.74Q-27.71 1.51-27.71 0.11L-27.71 0.11ZM-24.00-0.43L-24.00-0.43Q-24.00 0.35-23.93 1.08Q-23.85 1.82-23.45 2.37Q-23.05 2.93-22.18 3.26Q-21.30 3.59-19.67 3.59L-19.67 3.59Q-18.05 3.59-17.17 3.26Q-16.29 2.93-15.89 2.37Q-15.49 1.82-15.42 1.08Q-15.35 0.35-15.35-0.43L-15.35-0.43Q-15.35-1.21-15.42-1.93Q-15.49-2.65-15.89-3.21Q-16.29-3.77-17.17-4.10Q-18.05-4.43-19.67-4.43L-19.67-4.43Q-21.30-4.43-22.18-4.10Q-23.05-3.77-23.45-3.21Q-23.85-2.65-23.93-1.93Q-24.00-1.21-24.00-0.43Z"/><path fill="#ff5757" opacity="1" d="M7.91 6.47L4.33 6.47L1.57 2.15Q0.45 2.15-0.58 2.12Q-1.61 2.10-2.60 1.94L-2.60 1.94L-2.60 6.47L-6.30 6.47L-6.30-7.33Q-4.53-7.54-2.59-7.64Q-0.64-7.74 1.24-7.74L1.24-7.74L1.81-7.74Q3.54-7.74 4.68-7.38Q5.81-7.02 6.49-6.40Q7.17-5.79 7.44-4.96Q7.70-4.14 7.70-3.21L7.70-3.21L7.70-2.39Q7.70-1.09 7.19-0.03Q6.67 1.03 5.36 1.61L5.36 1.61L7.91 5.65L7.91 6.47ZM1.28-4.45L1.28-4.45Q0.56-4.45-0.50-4.41Q-1.57-4.36-2.60-4.26L-2.60-4.26L-2.60-1.34Q-1.63-1.21-0.76-1.18Q0.10-1.15 0.64-1.15L0.64-1.15Q1.87-1.15 2.55-1.26Q3.23-1.38 3.55-1.60Q3.87-1.83 3.93-2.18Q4.00-2.53 4.00-3.03L4.00-3.03Q4.00-3.29 3.96-3.55Q3.91-3.81 3.66-4.01Q3.40-4.22 2.84-4.33Q2.29-4.45 1.28-4.45Z"/><path fill="#ff5757" opacity="1" d="M26.47-7.33L26.47-4.03L16.97-4.03L16.97-1.97L24.41-1.97L24.41 1.32L16.97 1.32L16.97 3.18L26.47 3.18L26.47 6.47L13.27 6.47L13.27-7.33L26.47-7.33Z"/><path fill="#ff5757" opacity="1" d=""/><path fill="#ff5757" opacity="1" d="M39.59-7.33L43.30-7.33L43.30-1.97L50.51-1.97L50.51-7.33L54.22-7.33L54.22 6.47L50.51 6.47L50.51 1.32L43.30 1.32L43.30 6.47L39.59 6.47L39.59-7.33Z"/><path fill="#ff5757" opacity="1" d="M59.55 0.11L59.55-0.97Q59.55-2.37 59.90-3.60Q60.25-4.84 61.13-5.75Q62.01-6.67 63.49-7.21Q64.97-7.74 67.22-7.74L67.22-7.74L67.96-7.74Q70.20-7.74 71.69-7.21Q73.17-6.67 74.05-5.75Q74.92-4.84 75.27-3.60Q75.62-2.37 75.62-0.97L75.62-0.97L75.62 0.11Q75.62 1.51 75.27 2.74Q74.92 3.98 74.05 4.90Q73.17 5.81 71.69 6.35Q70.20 6.88 67.96 6.88L67.96 6.88L67.22 6.88Q64.97 6.88 63.49 6.35Q62.01 5.81 61.13 4.90Q60.25 3.98 59.90 2.74Q59.55 1.51 59.55 0.11L59.55 0.11ZM63.26-0.43L63.26-0.43Q63.26 0.35 63.33 1.08Q63.41 1.82 63.81 2.37Q64.21 2.93 65.09 3.26Q65.96 3.59 67.59 3.59L67.59 3.59Q69.22 3.59 70.09 3.26Q70.97 2.93 71.37 2.37Q71.77 1.82 71.84 1.08Q71.91 0.35 71.91-0.43L71.91-0.43Q71.91-1.21 71.84-1.93Q71.77-2.65 71.37-3.21Q70.97-3.77 70.09-4.10Q69.22-4.43 67.59-4.43L67.59-4.43Q65.96-4.43 65.09-4.10Q64.21-3.77 63.81-3.21Q63.41-2.65 63.33-1.93Q63.26-1.21 63.26-0.43Z"/><path fill="#ff5757" opacity="1" d="M90.43 3.65L88.54 3.65L84.67-1.77L84.67 6.47L80.96 6.47L80.96-7.33L84.67-7.33L89.49-0.26L94.31-7.33L98.01-7.33L98.01 6.47L94.31 6.47L94.31-1.77L90.43 3.65Z"/><path fill="#ff5757" opacity="1" d="M116.76-7.33L116.76-4.03L107.26-4.03L107.26-1.97L114.70-1.97L114.70 1.32L107.26 1.32L107.26 3.18L116.76 3.18L116.76 6.47L103.56 6.47L103.56-7.33L116.76-7.33Z"/><path fill="#ff5757" opacity="1" d="M128.69 3.59L128.69 3.59Q129.80 3.59 130.43 3.47Q131.06 3.36 131.38 3.19Q131.70 3.01 131.78 2.79Q131.86 2.58 131.86 2.39L131.86 2.39Q131.86 2.02 131.69 1.81Q131.51 1.59 131.13 1.47Q130.75 1.34 130.12 1.29Q129.49 1.24 128.61 1.22L128.61 1.22Q128.09 1.20 127.39 1.16Q126.69 1.12 125.95 0.98Q125.21 0.85 124.49 0.59Q123.76 0.33 123.20-0.13Q122.63-0.59 122.28-1.29Q121.93-2.00 121.93-3.00L121.93-3.00L121.93-3.27Q121.93-4.16 122.25-4.97Q122.57-5.79 123.34-6.40Q124.12-7.02 125.42-7.38Q126.73-7.74 128.69-7.74L128.69-7.74L129.43-7.74Q130.85-7.74 132.19-7.57Q133.53-7.39 134.81-7.06L134.81-7.06L134.81-3.66Q133.30-4.01 131.83-4.22Q130.36-4.43 128.83-4.43L128.83-4.43Q127.72-4.43 127.08-4.31Q126.44-4.20 126.12-4.02Q125.80-3.85 125.72-3.65Q125.64-3.46 125.64-3.27L125.64-3.27Q125.64-2.90 125.81-2.68Q125.99-2.45 126.38-2.32Q126.77-2.20 127.39-2.15Q128.01-2.10 128.87-2.08L128.87-2.08Q129.37-2.06 130.05-2.03Q130.73-2.00 131.48-1.86Q132.23-1.73 132.96-1.46Q133.69-1.19 134.27-0.73Q134.85-0.26 135.21 0.45Q135.57 1.16 135.57 2.17L135.57 2.17L135.57 2.43Q135.57 3.32 135.25 4.12Q134.93 4.93 134.15 5.54Q133.36 6.16 132.07 6.52Q130.77 6.88 128.79 6.88L128.79 6.88L128.05 6.88Q126.42 6.88 124.89 6.71Q123.35 6.53 121.87 6.22L121.87 6.22L121.87 2.76Q123.54 3.13 125.32 3.36Q127.10 3.59 128.69 3.59Z"/></g><g transform="matrix(0.93 0 0 -1.42 249.82596833807338 357.20905967706966)"  >
<path style="stroke: none; stroke-width: 1; stroke-dasharray: none; stroke-linecap: butt; stroke-dashoffset: 0; stroke-linejoin: miter; stroke-miterlimit: 4; fill: rgb(255,87,87); fill-rule: nonzero; opacity: 1;"  transform=" translate(-49.95, -50)" d="M 91.7 49 H 8.3 c -0.6 0 -1 0.4 -1 1 s 0.4 1 1 1 h 83.3 c 0.6 0 1 -0.4 1 -1 S 92.2 49 91.7 49 z" stroke-linecap="round" />
</g>
<g transform="matrix(1 0 0 1 249.49239011694644 375.4941773153828)" style=""  ><path fill="#ff5757" opacity="1" d="M-37.18-4.48L-35.21-4.48L-33.52 1.07L-31.80-4.48L-30.20-4.48L-28.51 1.07L-26.78-4.48L-24.82-4.48L-24.82-3.98L-27.71 3.96L-29.26 3.96L-31.03-1.50L-32.73 3.96L-34.28 3.96L-37.18-3.98L-37.18-4.48Z"/><path fill="#ff5757" opacity="1" d="M-23.49-4.48L-21.22-4.48L-21.22 3.96L-23.49 3.96L-23.49-4.48Z"/><path fill="#ff5757" opacity="1" d="M-14.36 3.96L-16.63 3.96L-16.63-2.47L-19.90-2.47L-19.90-4.48L-11.07-4.48L-11.07-2.47L-14.36-2.47L-14.36 3.96Z"/><path fill="#ff5757" opacity="1" d="M-9.75-4.48L-7.48-4.48L-7.48-1.21L-3.07-1.21L-3.07-4.48L-0.80-4.48L-0.80 3.96L-3.07 3.96L-3.07 0.81L-7.48 0.81L-7.48 3.96L-9.75 3.96L-9.75-4.48Z"/><path fill="#ff5757" opacity="1" d=""/><path fill="#ff5757" opacity="1" d="M9.15 3.96L6.89 3.96L6.89-2.47L3.61-2.47L3.61-4.48L12.44-4.48L12.44-2.47L9.15-2.47L9.15 3.96Z"/><path fill="#ff5757" opacity="1" d="M21.84-4.48L21.84-2.47L16.03-2.47L16.03-1.21L20.58-1.21L20.58 0.81L16.03 0.81L16.03 1.94L21.84 1.94L21.84 3.96L13.77 3.96L13.77-4.48L21.84-4.48Z"/><path fill="#ff5757" opacity="1" d="M25.61-4.48L30.03 0.93L30.03-4.48L32.30-4.48L32.30 3.96L30.03 3.96L25.61-1.46L25.61 3.96L23.34 3.96L23.34-4.48L25.61-4.48Z"/><path fill="#ff5757" opacity="1" d="M34.28-4.48L36.55-4.48L36.55 3.96L34.28 3.96L34.28-4.48Z"/></g></svg>